<svg id="visual" viewBox="0 0 960 540" width="960" height="540" xmlns="http://www.w3.org/2000/svg" xmlns:xlink="http://www.w3.org/1999/xlink" version="1.1"><rect x="0" y="0" width="960" height="540" fill="#E6C899"></rect><path d="M0 289L8.8 289.8C17.7 290.7 35.3 292.3 53.2 284.3C71 276.3 89 258.7 106.8 257C124.7 255.3 142.3 269.7 160 276.7C177.7 283.7 195.3 283.3 213.2 286.7C231 290 249 297 266.8 298C284.7 299 302.3 294 320 292.8C337.7 291.7 355.3 294.3 373.2 294.2C391 294 409 291 426.8 284.8C444.7 278.7 462.3 269.3 480 266.7C497.7 264 515.3 268 533.2 278.3C551 288.7 569 305.3 586.8 297C604.7 288.7 622.3 255.3 640 255.5C657.7 255.7 675.3 289.3 693.2 290.7C711 292 729 261 746.8 248.2C764.7 235.3 782.3 240.7 800 249.5C817.7 258.3 835.3 270.7 853.2 266.5C871 262.3 889 241.7 906.8 232.7C924.7 223.7 942.3 226.3 951.2 227.7L960 229L960 541L951.2 541C942.3 541 924.7 541 906.8 541C889 541 871 541 853.2 541C835.3 541 817.7 541 800 541C782.3 541 764.7 541 746.8 541C729 541 711 541 693.2 541C675.3 541 657.7 541 640 541C622.3 541 604.7 541 586.8 541C569 541 551 541 533.2 541C515.3 541 497.7 541 480 541C462.3 541 444.7 541 426.8 541C409 541 391 541 373.2 541C355.3 541 337.7 541 320 541C302.3 541 284.7 541 266.8 541C249 541 231 541 213.2 541C195.3 541 177.7 541 160 541C142.3 541 124.7 541 106.8 541C89 541 71 541 53.2 541C35.3 541 17.7 541 8.8 541L0 541Z" fill="#1F1F1F" stroke-linecap="round" stroke-linejoin="miter"></path></svg>